name C:\Users\u0101727\Documents\MyRepositories\upper-imu-dc\OpenSim\subject0\MA\ResultsMA\grid_4nodes_9dim\angles_18.mot
datacolumns 10
datarows 42
range 1800.01000000 1800.42000000
endheader 
time	clav_prot	clav_elev	scapula_abduction	scapula_elevation	scapula_upward_rot	scapula_winging	plane_elv	shoulder_elv	axial_rot	
       1800.01000000	        -50.00000000	        -10.00000000	         -3.33333333	        -10.00000000	         90.00000000	         10.00000000	         90.00000000	         63.33333333	         30.00000000	
       1800.02000000	        -38.33333333	        -10.00000000	         -3.33333333	        -10.00000000	         90.00000000	         10.00000000	         90.00000000	         63.33333333	         30.00000000	
       1800.03000000	        -26.66666667	        -10.00000000	         -3.33333333	        -10.00000000	         90.00000000	         10.00000000	         90.00000000	         63.33333333	         30.00000000	
       1800.04000000	        -15.00000000	        -10.00000000	         -3.33333333	        -10.00000000	         90.00000000	         10.00000000	         90.00000000	         63.33333333	         30.00000000	
       1800.05000000	        -50.00000000	          0.00000000	         -3.33333333	        -10.00000000	         90.00000000	         10.00000000	         90.00000000	         63.33333333	         30.00000000	
       1800.06000000	        -38.33333333	          0.00000000	         -3.33333333	        -10.00000000	         90.00000000	         10.00000000	         90.00000000	         63.33333333	         30.00000000	
       1800.07000000	        -26.66666667	          0.00000000	         -3.33333333	        -10.00000000	         90.00000000	         10.00000000	         90.00000000	         63.33333333	         30.00000000	
       1800.08000000	        -15.00000000	          0.00000000	         -3.33333333	        -10.00000000	         90.00000000	         10.00000000	         90.00000000	         63.33333333	         30.00000000	
       1800.09000000	        -50.00000000	         10.00000000	         -3.33333333	        -10.00000000	         90.00000000	         10.00000000	         90.00000000	         63.33333333	         30.00000000	
       1800.10000000	        -38.33333333	         10.00000000	         -3.33333333	        -10.00000000	         90.00000000	         10.00000000	         90.00000000	         63.33333333	         30.00000000	
       1800.11000000	        -26.66666667	         10.00000000	         -3.33333333	        -10.00000000	         90.00000000	         10.00000000	         90.00000000	         63.33333333	         30.00000000	
       1800.12000000	        -15.00000000	         10.00000000	         -3.33333333	        -10.00000000	         90.00000000	         10.00000000	         90.00000000	         63.33333333	         30.00000000	
       1800.13000000	        -50.00000000	         20.00000000	         -3.33333333	        -10.00000000	         90.00000000	         10.00000000	         90.00000000	         63.33333333	         30.00000000	
       1800.14000000	        -38.33333333	         20.00000000	         -3.33333333	        -10.00000000	         90.00000000	         10.00000000	         90.00000000	         63.33333333	         30.00000000	
       1800.15000000	        -26.66666667	         20.00000000	         -3.33333333	        -10.00000000	         90.00000000	         10.00000000	         90.00000000	         63.33333333	         30.00000000	
       1800.16000000	        -15.00000000	         20.00000000	         -3.33333333	        -10.00000000	         90.00000000	         10.00000000	         90.00000000	         63.33333333	         30.00000000	
       1800.17000000	        -50.00000000	        -10.00000000	         15.00000000	        -10.00000000	         90.00000000	         10.00000000	         90.00000000	         63.33333333	         30.00000000	
       1800.18000000	        -38.33333333	        -10.00000000	         15.00000000	        -10.00000000	         90.00000000	         10.00000000	         90.00000000	         63.33333333	         30.00000000	
       1800.19000000	        -26.66666667	        -10.00000000	         15.00000000	        -10.00000000	         90.00000000	         10.00000000	         90.00000000	         63.33333333	         30.00000000	
       1800.20000000	        -15.00000000	        -10.00000000	         15.00000000	        -10.00000000	         90.00000000	         10.00000000	         90.00000000	         63.33333333	         30.00000000	
       1800.21000000	        -50.00000000	          0.00000000	         15.00000000	        -10.00000000	         90.00000000	         10.00000000	         90.00000000	         63.33333333	         30.00000000	
       1800.22000000	        -38.33333333	          0.00000000	         15.00000000	        -10.00000000	         90.00000000	         10.00000000	         90.00000000	         63.33333333	         30.00000000	
       1800.23000000	        -26.66666667	          0.00000000	         15.00000000	        -10.00000000	         90.00000000	         10.00000000	         90.00000000	         63.33333333	         30.00000000	
       1800.24000000	        -15.00000000	          0.00000000	         15.00000000	        -10.00000000	         90.00000000	         10.00000000	         90.00000000	         63.33333333	         30.00000000	
       1800.25000000	        -50.00000000	         10.00000000	         15.00000000	        -10.00000000	         90.00000000	         10.00000000	         90.00000000	         63.33333333	         30.00000000	
       1800.26000000	        -38.33333333	         10.00000000	         15.00000000	        -10.00000000	         90.00000000	         10.00000000	         90.00000000	         63.33333333	         30.00000000	
       1800.27000000	        -26.66666667	         10.00000000	         15.00000000	        -10.00000000	         90.00000000	         10.00000000	         90.00000000	         63.33333333	         30.00000000	
       1800.28000000	        -15.00000000	         10.00000000	         15.00000000	        -10.00000000	         90.00000000	         10.00000000	         90.00000000	         63.33333333	         30.00000000	
       1800.29000000	        -50.00000000	         20.00000000	         15.00000000	        -10.00000000	         90.00000000	         10.00000000	         90.00000000	         63.33333333	         30.00000000	
       1800.30000000	        -38.33333333	         20.00000000	         15.00000000	        -10.00000000	         90.00000000	         10.00000000	         90.00000000	         63.33333333	         30.00000000	
       1800.31000000	        -26.66666667	         20.00000000	         15.00000000	        -10.00000000	         90.00000000	         10.00000000	         90.00000000	         63.33333333	         30.00000000	
       1800.32000000	        -15.00000000	         20.00000000	         15.00000000	        -10.00000000	         90.00000000	         10.00000000	         90.00000000	         63.33333333	         30.00000000	
       1800.33000000	        -50.00000000	        -10.00000000	        -40.00000000	         -3.33333333	         90.00000000	         10.00000000	         90.00000000	         63.33333333	         30.00000000	
       1800.34000000	        -38.33333333	        -10.00000000	        -40.00000000	         -3.33333333	         90.00000000	         10.00000000	         90.00000000	         63.33333333	         30.00000000	
       1800.35000000	        -26.66666667	        -10.00000000	        -40.00000000	         -3.33333333	         90.00000000	         10.00000000	         90.00000000	         63.33333333	         30.00000000	
       1800.36000000	        -15.00000000	        -10.00000000	        -40.00000000	         -3.33333333	         90.00000000	         10.00000000	         90.00000000	         63.33333333	         30.00000000	
       1800.37000000	        -50.00000000	          0.00000000	        -40.00000000	         -3.33333333	         90.00000000	         10.00000000	         90.00000000	         63.33333333	         30.00000000	
       1800.38000000	        -38.33333333	          0.00000000	        -40.00000000	         -3.33333333	         90.00000000	         10.00000000	         90.00000000	         63.33333333	         30.00000000	
       1800.39000000	        -26.66666667	          0.00000000	        -40.00000000	         -3.33333333	         90.00000000	         10.00000000	         90.00000000	         63.33333333	         30.00000000	
       1800.40000000	        -15.00000000	          0.00000000	        -40.00000000	         -3.33333333	         90.00000000	         10.00000000	         90.00000000	         63.33333333	         30.00000000	
       1800.41000000	        -50.00000000	         10.00000000	        -40.00000000	         -3.33333333	         90.00000000	         10.00000000	         90.00000000	         63.33333333	         30.00000000	
       1800.42000000	        -38.33333333	         10.00000000	        -40.00000000	         -3.33333333	         90.00000000	         10.00000000	         90.00000000	         63.33333333	         30.00000000	
